{"title":"Rio.Bravo.1959.BRRip.480.XviD.Ac3.Feel-Free","uid":6446969,"size":1270605655,"categoryP":"video","categoryS":"movies","magnet":"?xt=urn:btih:496e5f966b8cbdb9ac28059a544884791571d459&amp;dn=Rio.Bravo.1959.BRRip.480.XviD.Ac3.Feel-Free&amp;tr=udp%3A%2F%2Ftracker.openbittorrent.com%3A80&amp;tr=udp%3A%2F%2Fopen.demonii.com%3A1337&amp;tr=udp%3A%2F%2Ftracker.coppersurfer.tk%3A6969&amp;tr=udp%3A%2F%2Fexodus.desync.com%3A6969","seeders":0,"leechers":1,"uploader":"qwersd","files":-1,"time":1307299834,"description":"Genre:Western | Romance | Drama \nLanguage:English\nIMDb: http://www.imdb.com/title/tt0053221/\nSource:BluRay.720p.x264.DTS-WiKi Thanks!\nSubtitles:Romana\n\nFormat/Info : Audio Video Interleave\nFile size : 1.18 GiB\nDuration : 2h 21mn\nOverall bit rate : 1 199 Kbps\n\nVideo\nID : 0\nFormat : MPEG-4 Visual\nFormat profile : Advanced Simple@L5\nFormat settings, BVOP : Yes\nFormat settings, QPel : No\nFormat settings, GMC : No warppoints\nFormat settings, Matrix : Default (H.263)\nCodec ID : XVID\nCodec ID/Hint : XviD\nDuration : 2h 21mn\nBit rate : 998 Kbps\nWidth : 640 pixels\nHeight : 360 pixels\nDisplay aspect ratio : 16:9\nFrame rate : 23.976 fps\nColor space : YUV\nChroma subsampling : 4:2:0\nBit depth : 8 bits\nScan type : Progressive\nBits/(Pixel*Frame) : 0.181\nStream size : 1 007 MiB (83%)\nWriting library : XviD 1.2.1 (UTC 2008-12-04)\n\nAudio\nID : 1\nFormat : AC-3\nFormat/Info : Audio Coding 3\nMode extension : CM (complete main)\nCodec ID : 2000\nDuration : 2h 21mn\nBit rate mode : Constant\nBit rate : 192 Kbps\nChannel(s) : 1 channel\nChannel positions : Front: C\nSampling rate : 48.0 KHz\nBit depth : 16 bits\nStream size : 194 MiB (16%)\nAlignment : Aligned on interleaves\nInterleave, duration : 42 ms (1.00 video frame)\nInterleave, preload duration : 512 ms\n\n\nPlot:\nA small-town sheriff in the American West enlists the help of a cripple, a drunk, and a young gunfighter in his efforts to hold in jail the brother of the local bad guy.\n\n\nScreens:\n &lt;a href=&quot;\nhttp://www.pix2links.com/images/98735042906161990804.png&quot; rel=&quot;nofollow&quot; target=&quot;_NEW&quot;&gt;\nhttp://www.pix2links.com/images/98735042906161990804.png&lt;/a&gt; &lt;a href=&quot;\nhttp://www.pix2links.com/images/91826961051163927672.png&quot; rel=&quot;nofollow&quot; target=&quot;_NEW&quot;&gt;\nhttp://www.pix2links.com/images/91826961051163927672.png&lt;/a&gt; &lt;a href=&quot;\nhttp://www.pix2links.com/images/96785337838645378773.png&quot; rel=&quot;nofollow&quot; target=&quot;_NEW&quot;&gt;\nhttp://www.pix2links.com/images/96785337838645378773.png&lt;/a&gt; &lt;a href=&quot;\nhttp://www.pix2links.com/images/31997159328626299948.png&quot; rel=&quot;nofollow&quot; target=&quot;_NEW&quot;&gt;\nhttp://www.pix2links.com/images/31997159328626299948.png&lt;/a&gt; &lt;a href=&quot;\nhttp://www.pix2links.com/images/65937743341030202349.png&quot; rel=&quot;nofollow&quot; target=&quot;_NEW&quot;&gt;\nhttp://www.pix2links.com/images/65937743341030202349.png&lt;/a&gt;\n\nGreets:\n\nINK,CRYS,IMAGINE,LKRG,FXG,3Li,FLAWL3SS,TA,iLLUSiON,ViSiON,DTRG SAFCuk009,LU,TheFalcon007,MYSTiC,PrisM,Noir,WBZ,LAP,Rx,Kingdom,SAFCuk009+Fabreezy,HDLiTE,TWiZTED,ExtraTorrentRG.ELEKTRI4KA,MAGNAT,CM8\nAnd to all the other p2p grps past and present.","torrent":{"xt":"urn:btih:496e5f966b8cbdb9ac28059a544884791571d459","amp;dn":"Rio.Bravo.1959.BRRip.480.XviD.Ac3.Feel-Free","amp;tr":["udp%3A%2F%2Ftracker.openbittorrent.com%3A80","udp%3A%2F%2Fopen.demonii.com%3A1337","udp%3A%2F%2Ftracker.coppersurfer.tk%3A6969","udp%3A%2F%2Fexodus.desync.com%3A6969"],"infoHash":"496e5f966b8cbdb9ac28059a544884791571d459","infoHashBuffer":{"type":"Buffer","data":[73,110,95,150,107,140,189,185,172,40,5,154,84,72,132,121,21,113,212,89]},"announce":[],"urlList":[]}}